<svg xmlns="http://www.w3.org/2000/svg" version="1.1" xmlns:xlink="http://www.w3.org/1999/xlink" xmlns:svgjs="http://svgjs.dev/svgjs" width="2000" height="1025" viewBox="0 0 2000 1025"><g transform="matrix(1,0,0,1,-1.2120410760493314,0.4563347949627996)"><svg viewBox="0 0 396 203" data-background-color="#146ebe" preserveAspectRatio="xMidYMid meet" height="1025" width="2000" xmlns="http://www.w3.org/2000/svg" xmlns:xlink="http://www.w3.org/1999/xlink"><g id="tight-bounds" transform="matrix(1,0,0,1,0.23998413305776012,-0.09037654963654518)"><svg viewBox="0 0 395.52 203.1807530992731" height="203.1807530992731" width="395.52"><g><svg viewBox="0 0 395.52 203.1807530992731" height="203.1807530992731" width="395.52"><g><svg viewBox="0 0 395.52 203.1807530992731" height="203.1807530992731" width="395.52"><g transform="matrix(1,0,0,1,0,145.67737938072696)"><svg viewBox="0 0 395.52 57.50337371854613" height="57.50337371854613" width="395.52"><g id="textblocktransform"><svg viewBox="0 0 395.52 57.50337371854613" height="57.50337371854613" width="395.52" id="textblock"><g><svg viewBox="0 0 395.52 57.50337371854613" height="57.50337371854613" width="395.52"><g transform="matrix(1,0,0,1,0,0)"><svg width="395.52" viewBox="4.699999809265137 -37.099998474121094 321.8799743652344 46.79999923706055" height="57.50337371854613" data-palette-color="#ffffff"><path d="M29.5-18.2Q32.4-17.25 34.1-15.03 35.8-12.8 35.8-9.5L35.8-9.5Q35.8-4.95 32.3-2.48 28.8 0 22.1 0L22.1 0 4.7 0 4.7-35 21.1-35Q27.3-35 30.65-32.58 34-30.15 34-25.9L34-25.9Q34-23.3 32.8-21.3 31.6-19.3 29.5-18.2L29.5-18.2ZM20.4-29.9L11.2-29.9 11.2-20.25 20.4-20.25Q23.8-20.25 25.63-21.48 27.45-22.7 27.45-25.05L27.45-25.05Q27.45-27.45 25.63-28.68 23.8-29.9 20.4-29.9L20.4-29.9ZM21.7-5.1Q29.25-5.1 29.25-10.15L29.25-10.15Q29.25-15.2 21.7-15.2L21.7-15.2 11.2-15.2 11.2-5.1 21.7-5.1ZM42.75 0L42.75-35 58.05-35Q63.65-35 68-32.83 72.35-30.65 74.75-26.68 77.15-22.7 77.15-17.5L77.15-17.5Q77.15-12.3 74.75-8.33 72.35-4.35 68-2.18 63.65 0 58.05 0L58.05 0 42.75 0ZM49.25-5.5L57.75-5.5Q61.6-5.5 64.52-6.98 67.45-8.45 69.02-11.18 70.6-13.9 70.6-17.5L70.6-17.5Q70.6-21.1 69.02-23.83 67.45-26.55 64.52-28.03 61.6-29.5 57.75-29.5L57.75-29.5 49.25-29.5 49.25-5.5ZM108.55-13.2Q108.55-12.55 108.45-11.35L108.45-11.35 87.5-11.35Q88.05-8.4 90.37-6.68 92.7-4.95 96.15-4.95L96.15-4.95Q100.55-4.95 103.4-7.85L103.4-7.85 106.75-4Q104.95-1.85 102.2-0.75 99.45 0.35 96 0.35L96 0.35Q91.6 0.35 88.25-1.4 84.9-3.15 83.07-6.28 81.25-9.4 81.25-13.35L81.25-13.35Q81.25-17.25 83.02-20.38 84.8-23.5 87.95-25.25 91.1-27 95.05-27L95.05-27Q98.95-27 102.02-25.28 105.1-23.55 106.82-20.43 108.55-17.3 108.55-13.2L108.55-13.2ZM95.05-22Q92.05-22 89.97-20.23 87.9-18.45 87.45-15.5L87.45-15.5 102.6-15.5Q102.2-18.4 100.15-20.2 98.1-22 95.05-22L95.05-22ZM133.04-26.7L139.04-26.7 127.59 0 121.14 0 109.69-26.7 116.19-26.7 124.49-6.9 133.04-26.7ZM167.29-13.2Q167.29-12.55 167.19-11.35L167.19-11.35 146.24-11.35Q146.79-8.4 149.12-6.68 151.44-4.95 154.89-4.95L154.89-4.95Q159.29-4.95 162.14-7.85L162.14-7.85 165.49-4Q163.69-1.85 160.94-0.75 158.19 0.35 154.74 0.35L154.74 0.35Q150.34 0.35 146.99-1.4 143.64-3.15 141.82-6.28 139.99-9.4 139.99-13.35L139.99-13.35Q139.99-17.25 141.77-20.38 143.54-23.5 146.69-25.25 149.84-27 153.79-27L153.79-27Q157.69-27 160.77-25.28 163.84-23.55 165.57-20.43 167.29-17.3 167.29-13.2L167.29-13.2ZM153.79-22Q150.79-22 148.72-20.23 146.64-18.45 146.19-15.5L146.19-15.5 161.34-15.5Q160.94-18.4 158.89-20.2 156.84-22 153.79-22L153.79-22ZM173.29 0L173.29-37.1 179.54-37.1 179.54 0 173.29 0ZM199.74 0.35Q195.69 0.35 192.44-1.4 189.19-3.15 187.36-6.28 185.54-9.4 185.54-13.35L185.54-13.35Q185.54-17.3 187.36-20.4 189.19-23.5 192.44-25.25 195.69-27 199.74-27L199.74-27Q203.84-27 207.09-25.25 210.34-23.5 212.16-20.4 213.99-17.3 213.99-13.35L213.99-13.35Q213.99-9.4 212.16-6.28 210.34-3.15 207.09-1.4 203.84 0.35 199.74 0.35L199.74 0.35ZM199.74-5Q203.19-5 205.44-7.3 207.69-9.6 207.69-13.35L207.69-13.35Q207.69-17.1 205.44-19.4 203.19-21.7 199.74-21.7L199.74-21.7Q196.29-21.7 194.06-19.4 191.84-17.1 191.84-13.35L191.84-13.35Q191.84-9.6 194.06-7.3 196.29-5 199.74-5L199.74-5ZM234.78-27Q238.68-27 241.76-25.3 244.83-23.6 246.58-20.5 248.33-17.4 248.33-13.35L248.33-13.35Q248.33-9.3 246.58-6.18 244.83-3.05 241.76-1.35 238.68 0.35 234.78 0.35L234.78 0.35Q229.38 0.35 226.23-3.25L226.23-3.25 226.23 9.7 219.98 9.7 219.98-26.7 225.93-26.7 225.93-23.2Q227.48-25.1 229.76-26.05 232.03-27 234.78-27L234.78-27ZM234.08-5Q237.53-5 239.76-7.3 241.98-9.6 241.98-13.35L241.98-13.35Q241.98-17.1 239.76-19.4 237.53-21.7 234.08-21.7L234.08-21.7Q231.83-21.7 230.03-20.68 228.23-19.65 227.18-17.75 226.13-15.85 226.13-13.35L226.13-13.35Q226.13-10.85 227.18-8.95 228.23-7.05 230.03-6.03 231.83-5 234.08-5L234.08-5ZM279.38-13.2Q279.38-12.55 279.28-11.35L279.28-11.35 258.33-11.35Q258.88-8.4 261.21-6.68 263.53-4.95 266.98-4.95L266.98-4.95Q271.38-4.95 274.23-7.85L274.23-7.85 277.58-4Q275.78-1.85 273.03-0.75 270.28 0.35 266.83 0.35L266.83 0.35Q262.43 0.35 259.08-1.4 255.73-3.15 253.91-6.28 252.08-9.4 252.08-13.35L252.08-13.35Q252.08-17.25 253.86-20.38 255.63-23.5 258.78-25.25 261.93-27 265.88-27L265.88-27Q269.78-27 272.86-25.28 275.93-23.55 277.66-20.43 279.38-17.3 279.38-13.2L279.38-13.2ZM265.88-22Q262.88-22 260.81-20.23 258.73-18.45 258.28-15.5L258.28-15.5 273.43-15.5Q273.03-18.4 270.98-20.2 268.93-22 265.88-22L265.88-22ZM291.33-22.8Q294.03-27 300.83-27L300.83-27 300.83-21.05Q300.03-21.2 299.38-21.2L299.38-21.2Q295.73-21.2 293.68-19.07 291.63-16.95 291.63-12.95L291.63-12.95 291.63 0 285.38 0 285.38-26.7 291.33-26.7 291.33-22.8ZM314.48 0.35Q311.23 0.35 308.13-0.5 305.03-1.35 303.18-2.65L303.18-2.65 305.58-7.4Q307.38-6.2 309.9-5.48 312.43-4.75 314.88-4.75L314.88-4.75Q320.48-4.75 320.48-7.7L320.48-7.7Q320.48-9.1 319.05-9.65 317.63-10.2 314.48-10.7L314.48-10.7Q311.18-11.2 309.1-11.85 307.03-12.5 305.5-14.13 303.98-15.75 303.98-18.65L303.98-18.65Q303.98-22.45 307.15-24.73 310.33-27 315.73-27L315.73-27Q318.48-27 321.23-26.38 323.98-25.75 325.73-24.7L325.73-24.7 323.33-19.95Q319.93-21.95 315.68-21.95L315.68-21.95Q312.93-21.95 311.5-21.13 310.08-20.3 310.08-18.95L310.08-18.95Q310.08-17.45 311.6-16.82 313.13-16.2 316.33-15.65L316.33-15.65Q319.53-15.15 321.58-14.5 323.63-13.85 325.1-12.3 326.58-10.75 326.58-7.9L326.58-7.9Q326.58-4.15 323.33-1.9 320.08 0.35 314.48 0.35L314.48 0.35Z" opacity="1" transform="matrix(1,0,0,1,0,0)" fill="#ffffff" class="wordmark-text-0" data-fill-palette-color="primary" id="text-0"></path></svg></g></svg></g></svg></g></svg></g><g transform="matrix(1,0,0,1,131.70889353662625,0)"><svg viewBox="0 0 132.10221292674746 132.10221292674746" height="132.10221292674746" width="132.10221292674746"><g><svg></svg></g><g id="icon-0"><svg viewBox="0 0 132.10221292674746 132.10221292674746" height="132.10221292674746" width="132.10221292674746"><g><rect width="120.11516027228333" height="120.11516027228333" x="5.993526327232061" y="5.993526327232061" fill="#ffffff" data-fill-palette-color="accent"></rect><rect width="120.11516027228333" height="120.11516027228333" x="8.881784197001252e-16" y="11.987052654464122" fill="#ffffff" opacity="0.5" data-fill-palette-color="accent"></rect></g><g transform="matrix(1,0,0,1,27.283090790715377,17.124360934948747)"><svg viewBox="0 0 77.5360313453167 97.85349105684996" height="97.85349105684996" width="77.5360313453167"><g><svg xmlns="http://www.w3.org/2000/svg" xmlns:xlink="http://www.w3.org/1999/xlink" version="1.1" x="0" y="0" viewBox="25.566999435424805 13.347999572753906 92.947998046875 117.30399322509766" enable-background="new 0 0 144.083 144" xml:space="preserve" height="97.85349105684996" width="77.5360313453167" class="icon-s-0" data-fill-palette-color="background" id="s-0"><path d="M72.041 74.773c-1.982 0-3.656-1.319-3.656-2.881h-6c0 4.896 4.331 8.881 9.656 8.881 5.325 0 9.659-3.984 9.659-8.881h-6C75.7 73.454 74.024 74.773 72.041 74.773z" fill="#146ebe" data-fill-palette-color="background"></path><path d="M74.386 54.502h-4.688v-6.183H48.153v17.999h21.545v-5.816h4.688v5.816h21.545V48.319H74.386V54.502zM63.698 60.318h-9.545v-5.999h9.545C63.698 54.319 63.698 60.318 63.698 60.318zM80.386 54.319h9.545v5.999h-9.545V54.319z" fill="#146ebe" data-fill-palette-color="background"></path><rect x="68.041" y="123.984" width="8.002" height="6" fill="#146ebe" data-fill-palette-color="background"></rect><path d="M110.375 127.714V113.47c0-12.286-13.805-21.917-24.213-26.079 5.74-2.815 10.543-7.334 13.945-13.072h9.154c5.104 0 9.254-4.15 9.254-9.252v-12.16c0.001-5.104-4.15-9.254-9.253-9.254h-4.526c-3.574-17.367-16.873-30.305-32.695-30.305s-29.12 12.938-32.695 30.305H34.82c-5.103 0-9.253 4.151-9.253 9.253v12.16c0 5.102 4.15 9.253 9.253 9.253h9.155c3.402 5.736 8.205 10.256 13.945 13.07-10.408 4.163-24.213 13.793-24.213 26.08v14.245h11.547v2.938h6v-17.368c0-0.845 0.687-1.532 1.531-1.532h38.514c0.844 0 1.529 0.688 1.529 1.532v17.368h6v-2.938H110.375zM38.509 68.318h-3.69c-1.794 0-3.253-1.459-3.253-3.253v-12.16c0-1.794 1.459-3.253 3.253-3.253h3.69v0.204c-0.069 1.037-0.115 2.082-0.115 3.14 0 1.063 0.045 2.109 0.115 3.144V68.318zM79.808 92.866c0 4.28-3.483 7.765-7.768 7.765-4.282 0-7.766-3.482-7.766-7.765v-3.173c2.479 0.607 5.074 0.938 7.767 0.938s5.288-0.329 7.767-0.938V92.866zM72.042 84.631c-14.883 0-26.304-12.128-27.532-28.663V50.14c0.024-0.344 0.043-0.69 0.075-1.032 6.495-1.127 11.208-4.773 13.723-10.622 4.085 2.573 9.031 3 13.567 3 4.372 0 9.555-0.438 13.807-3.212 2.47 5.979 7.215 9.699 13.816 10.835 0.032 0.341 0.051 0.688 0.076 1.031v5.828C98.345 72.503 86.924 84.631 72.042 84.631zM112.517 65.065c0 1.793-1.46 3.253-3.254 3.253h-3.688V56.14c0.068-1.035 0.114-2.081 0.114-3.144 0-1.058-0.046-2.103-0.114-3.14v-0.204h3.688c1.794 0 3.254 1.459 3.254 3.253V65.065z" fill="#146ebe" data-fill-palette-color="background"></path></svg></g></svg></g></svg></g></svg></g><g></g></svg></g></svg></g><defs></defs></svg><rect width="395.52" height="203.1807530992731" fill="none" stroke="none" visibility="hidden"></rect></g></svg></g></svg>