<svg xmlns="http://www.w3.org/2000/svg" viewBox="0 0 24 30" x="0px" y="0px"><path d="m2.15,17.687c.823,1.426,2.654,1.916,4.08,1.093l.306-.177c.742.614,1.583,1.102,2.478,1.435v.349c0,1.646,1.34,2.986,2.986,2.986s2.986-1.34,2.986-2.986v-.349c.895-.333,1.736-.821,2.478-1.435l.306.177c1.427.824,3.257.333,4.08-1.093.823-1.426.333-3.256-1.093-4.08l-.304-.176c.083-.482.125-.962.125-1.431s-.042-.949-.125-1.431l.304-.176c1.426-.823,1.917-2.653,1.093-4.08-.823-1.426-2.651-1.917-4.08-1.093l-.307.177c-.742-.614-1.583-1.102-2.477-1.435v-.349c0-1.646-1.34-2.986-2.986-2.986s-2.986,1.34-2.986,2.986v.349c-.895.333-1.736.821-2.478,1.435l-.306-.177c-1.427-.824-3.256-.332-4.08,1.093-.823,1.426-.333,3.256,1.093,4.08l.304.176c-.083.482-.125.962-.125,1.431s.042.949.125,1.431l-.304.176c-1.426.823-1.917,2.653-1.093,4.08Zm12.283.944l-1.711-3.02c-.143-.252-.417-.4-.707-.378-1.41.098-2.776-.628-3.474-1.863-.454-.797-.59-1.71-.413-2.575l.219.386c.363.639.956,1.099,1.667,1.293.708.193,1.445.1,2.073-.26.651-.366,1.112-.961,1.293-1.658.199-.697.108-1.46-.25-2.098l-.275-.481c.894.271,1.676.877,2.153,1.715.715,1.25.647,2.764-.175,3.951-.165.237-.178.546-.036.797l1.701,2.999c-.619.513-1.319.916-2.065,1.191Zm-10.44-3.725l.772-.446c.287-.166.431-.5.354-.823-.131-.555-.198-1.105-.198-1.637s.067-1.083.198-1.637c.077-.323-.067-.657-.354-.823l-.772-.446c-.71-.41-.954-1.321-.544-2.031.41-.709,1.319-.955,2.031-.544l.773.447c.286.165.649.124.89-.104.806-.762,1.786-1.33,2.834-1.642.318-.095.536-.387.536-.719v-.888c0-.819.667-1.486,1.486-1.486s1.486.667,1.486,1.486v.888c0,.332.218.624.536.719,1.047.312,2.027.879,2.833,1.642.241.228.602.269.89.104l.774-.447c.709-.409,1.621-.166,2.031.544.409.71.165,1.621-.544,2.031l-.772.446c-.287.166-.431.5-.354.823.131.555.198,1.105.198,1.637s-.067,1.083-.198,1.637c-.077.323.067.657.354.823l.772.446c.71.41.954,1.321.544,2.031-.41.71-1.321.954-2.031.544l-.406-.235-1.791-3.159c.89-1.582.897-3.55-.011-5.139-.986-1.734-2.911-2.766-4.886-2.617-.257.019-.486.168-.607.396-.122.227-.117.501.01.725l.998,1.746c.162.287.203.632.108.963-.083.316-.289.581-.587.749-.285.163-.618.204-.937.118-.324-.089-.594-.297-.758-.587l-.97-1.71c-.129-.228-.368-.372-.629-.379-.267-.011-.508.121-.651.34-1.07,1.642-1.132,3.719-.164,5.418.9,1.593,2.591,2.59,4.401,2.631l1.848,3.26v.386c0,.819-.667,1.486-1.486,1.486s-1.486-.667-1.486-1.486v-.888c0-.332-.218-.624-.536-.719-1.048-.312-2.028-.88-2.834-1.642-.143-.135-.328-.205-.515-.205-.129,0-.258.033-.375.101l-.773.447c-.71.409-1.62.166-2.031-.544-.41-.71-.166-1.621.544-2.031Z"/><text x="0" y="39" fill="#000000" font-size="5px" font-weight="bold" font-family="'Helvetica Neue', Helvetica, Arial-Unicode, Arial, Sans-serif">Created by Rini Bahtiar</text><text x="0" y="44" fill="#000000" font-size="5px" font-weight="bold" font-family="'Helvetica Neue', Helvetica, Arial-Unicode, Arial, Sans-serif">from the Noun Project</text></svg>