<svg xmlns="http://www.w3.org/2000/svg" viewBox="0 0 24 30" x="0px" y="0px"><path d="m20.792,6.049l-7.501-3.99c-.809-.429-1.772-.429-2.583,0l-7.5,3.989c-.899.479-1.458,1.41-1.458,2.428v11.023c0,1.517,1.233,2.75,2.75,2.75h15c1.517,0,2.75-1.233,2.75-2.75v-11.023c0-1.019-.559-1.949-1.458-2.428Zm-9.38-2.665c.185-.098.386-.146.588-.146s.403.048.587.146l7.314,3.89-7.309,3.894c-.371.194-.814.194-1.18.002l-7.313-3.896,7.313-3.89Zm9.338,16.116c0,.689-.561,1.25-1.25,1.25H4.5c-.689,0-1.25-.561-1.25-1.25v-10.978l7.461,3.974c.403.211.845.317,1.288.317s.888-.106,1.294-.319l7.457-3.972v10.978Z"/><text x="0" y="39" fill="#000000" font-size="5px" font-weight="bold" font-family="'Helvetica Neue', Helvetica, Arial-Unicode, Arial, Sans-serif">Created by Rini Bahtiar</text><text x="0" y="44" fill="#000000" font-size="5px" font-weight="bold" font-family="'Helvetica Neue', Helvetica, Arial-Unicode, Arial, Sans-serif">from the Noun Project</text></svg>