<svg xmlns="http://www.w3.org/2000/svg" xmlns:xlink="http://www.w3.org/1999/xlink" version="1.1" x="0px" y="0px" viewBox="0 0 32 40" style="enable-background:new 0 0 32 32;" xml:space="preserve"><g><polygon points="27.94,4.85 23.87,4.85 23.87,7.61 25.58,7.61 25.58,19.01 5.08,19.01 5.08,7.61 7.47,7.61 7.47,4.85 2.73,4.85    2.73,21.67 27.94,21.67  " fill="#2c0a0f"/><path d="M13.9688,24.4906h2.7324c0.7432,0,1.3477-0.605,1.3477-1.3481v-0.25h-5.4277v0.25   C12.6211,23.8856,13.2256,24.4906,13.9688,24.4906z" fill="#2c0a0f"/><path d="M27.9421,27.1522l0.7926-3.4265c0.1061-0.4587-0.2423-0.8969-0.7131-0.8969h-8.9727v0.3136   c0,1.2949-1.0527,2.3481-2.3477,2.3481h-2.7324c-1.2949,0-2.3477-1.0532-2.3477-2.3481v-0.3136H2.6484   c-0.4708,0-0.8192,0.4382-0.7131,0.8969l0.7926,3.4265H27.9421z" fill="#2c0a0f"/><polygon points="18.7816,1.25 18.7816,4.4269 21.9587,4.4269  " fill="#2c0a0f"/><path d="M11.3941,1.25c-1.3557,0-2.4548,1.0991-2.4548,2.4548v11.0675c0,1.3557,1.0991,2.4548,2.4548,2.4548h8.1099   c1.3557,0,2.4548-1.0991,2.4548-2.4548V5.1384h-3.8885V1.25H11.3941z M12.6002,8.2226l0.5425-0.5424l-0.5425-0.5425l0.503-0.503   l0.5426,0.5425l0.5426-0.5425l0.503,0.503l-0.5425,0.5425l0.5425,0.5424l-0.503,0.503l-0.5426-0.5425l-0.5426,0.5425   L12.6002,8.2226z M18.4417,12.8093h-2.4741v1.0022c0,0.5978-0.4863,1.0845-1.0845,1.0845c-0.5982,0-1.0845-0.4866-1.0845-1.0845   v-1.0022H13.106v-0.7114h0.6926h2.169h2.4741V12.8093z M18.2639,7.1772l0.5426-0.5425l0.503,0.503l-0.5425,0.5425l0.5425,0.5424   l-0.503,0.503l-0.5426-0.5425l-0.5426,0.5425l-0.503-0.503l0.5425-0.5424l-0.5425-0.5425l0.503-0.503L18.2639,7.1772z" fill="#2c0a0f"/><path d="M14.5101,13.8115c0,0.2056,0.1675,0.373,0.3731,0.373s0.373-0.1674,0.373-0.373v-1.0022h-0.7462V13.8115z" fill="#2c0a0f"/></g><text x="0" y="47" fill="#2c0a0f" font-size="5px" font-weight="bold" font-family="'Helvetica Neue', Helvetica, Arial-Unicode, Arial, Sans-serif">Created by Afdalul Zikri</text><text x="0" y="52" fill="#2c0a0f" font-size="5px" font-weight="bold" font-family="'Helvetica Neue', Helvetica, Arial-Unicode, Arial, Sans-serif">from the Noun Project</text></svg>