<svg xmlns="http://www.w3.org/2000/svg" viewBox="0 0 24 30" x="0px" y="0px"><path d="m18.5,19.5v-7.751h.125c1.517,0,2.75-1.233,2.75-2.75v-1c0-1.517-1.233-2.75-2.75-2.75h-.125v-.749c0-1.516-1.233-2.75-2.75-2.75h-7.5c-1.517,0-2.75,1.234-2.75,2.75v6.29h-.125c-1.517,0-2.75,1.233-2.75,2.75v1c0,1.517,1.233,2.75,2.75,2.75h.125v2.21c0,1.517,1.233,2.75,2.75,2.75h7.5c1.517,0,2.75-1.233,2.75-2.75Zm.125-12.751c.689,0,1.25.561,1.25,1.25v1c0,.689-.561,1.25-1.25,1.25h-1c-.148,0-.293.044-.416.126l-1.834,1.223v-.599c0-.414-.336-.75-.75-.75-.689,0-1.25-.561-1.25-1.25v-1c0-.689.561-1.25,1.25-1.25h4ZM6.375,15.79h-1c-.689,0-1.25-.561-1.25-1.25v-1c0-.689.561-1.25,1.25-1.25h4c.689,0,1.25.561,1.25,1.25v1c0,.689-.561,1.25-1.25,1.25-.414,0-.75.336-.75.75v.599l-1.834-1.223c-.123-.082-.268-.126-.416-.126Zm.625,3.71v-1.642l1.959,1.306c.125.083.271.126.416.126.122,0,.243-.029.354-.089.244-.13.396-.385.396-.661v-1.354c1.153-.327,2-1.39,2-2.646v-1c0-1.517-1.233-2.75-2.75-2.75h-2.375v-6.29c0-.689.561-1.25,1.25-1.25h2.457c.259.447.738.75,1.293.75s1.033-.303,1.293-.75h2.457c.689,0,1.25.561,1.25,1.25v.749h-2.375c-1.517,0-2.75,1.233-2.75,2.75v1c0,1.256.847,2.319,2,2.646v1.354c0,.276.152.531.396.661.111.06.232.089.354.089.146,0,.291-.042.416-.126l1.959-1.306v7.183c0,.689-.561,1.25-1.25,1.25h-7.5c-.689,0-1.25-.561-1.25-1.25Z"/><text x="0" y="39" fill="#000000" font-size="5px" font-weight="bold" font-family="'Helvetica Neue', Helvetica, Arial-Unicode, Arial, Sans-serif">Created by Rini Bahtiar</text><text x="0" y="44" fill="#000000" font-size="5px" font-weight="bold" font-family="'Helvetica Neue', Helvetica, Arial-Unicode, Arial, Sans-serif">from the Noun Project</text></svg>