<svg xmlns="http://www.w3.org/2000/svg" viewBox="0 0 24 30" x="0px" y="0px"><path d="m13.042.97c-.414,0-.75.336-.75.75v8.337c0,.235.11.456.297.598.132.1.291.152.453.152.068,0,.137-.009.204-.028l8.028-2.263c.191-.054.354-.182.451-.355s.122-.379.067-.57c-1.103-3.898-4.7-6.62-8.75-6.62Zm.75,8.097V2.507c2.82.282,5.276,2.14,6.316,4.779l-6.316,1.78Z"/><path d="m10.228,23.03c3.611,0,6.879-2.14,8.326-5.452.166-.38-.008-.822-.387-.988l-7.188-3.138v-7.846c0-.414-.336-.75-.75-.75C5.217,4.856,1.141,8.932,1.141,13.943s4.077,9.087,9.087,9.087Zm-.75-16.638v7.55c0,.298.177.568.45.688l6.917,3.02c-1.332,2.379-3.854,3.88-6.617,3.88-4.184,0-7.587-3.404-7.587-7.587,0-3.93,3.004-7.172,6.837-7.55Z"/><path d="m22.167,9.563c-.174-.097-.38-.123-.571-.068l-8.028,2.263c-.305.086-.523.354-.544.67-.022.316.158.612.448.739l7.639,3.335c.098.042.2.062.3.062.287,0,.562-.166.686-.445.507-1.138.764-2.362.764-3.64,0-.831-.113-1.66-.337-2.464-.054-.192-.181-.355-.355-.453Zm-1.174,5.251l-4.998-2.182,5.248-1.479c.077.438.116.882.116,1.327,0,.809-.123,1.592-.366,2.334Z"/><text x="0" y="39" fill="#000000" font-size="5px" font-weight="bold" font-family="'Helvetica Neue', Helvetica, Arial-Unicode, Arial, Sans-serif">Created by Rini Bahtiar</text><text x="0" y="44" fill="#000000" font-size="5px" font-weight="bold" font-family="'Helvetica Neue', Helvetica, Arial-Unicode, Arial, Sans-serif">from the Noun Project</text></svg>